# xmcd CD database file
#
# Track frame offsets:
#	150
#	12787
#	26070
#	36587
#	50177
#	61242
#	69867
#	83972
#	99715
#	111017
#	124870
#	135465
#
# Disc length: 1912 seconds
#
# Revision: 0
# Processed by: cddbd v1.5.1PL0 Copyright (c) Steve Scherf et al.
# Submitted via: CDex 1.51
#
DISCID=a407760c
DTITLE=The Louvin Brothers - Christmas With The Louvin Brothers
DYEAR=1961
DGENRE=Country
TTITLE0=O Come All Ye Faithful
TTITLE1=Silent Night
TTITLE2=Away in a Manger
TTITLE3=Good Christian Men Rejoice
TTITLE4=While Shepherds Watched Their Flocks
TTITLE5=Deck The Halls
TTITLE6=It Came Upon A Midnight Clear
TTITLE7=The First Noel
TTITLE8=O Little Town Of Bethlehem
TTITLE9=The Friendly Beasts
TTITLE10=Hark The Herald Angels Sing
TTITLE11=Joy To The World
EXTD=YEAR: 1961
EXTT0=
EXTT1=
EXTT2=
EXTT3=
EXTT4=
EXTT5=
EXTT6=
EXTT7=
EXTT8=
EXTT9=
EXTT10=
EXTT11=
PLAYORDER=
